<svg width="201" height="30" viewBox="0 0 201 30" fill="none" xmlns="http://www.w3.org/2000/svg">
<path d="M15.1327 21.9887C13.6962 21.9886 12.2964 21.5313 11.1334 20.6822C9.97038 19.833 9.10358 18.6354 8.65683 17.2605L0.727783 19.2016C1.41191 21.5457 2.66126 23.6829 4.3645 25.4228C6.06774 27.1627 8.17196 28.4512 10.4896 29.1736C12.8073 29.8959 15.2664 30.0296 17.6478 29.5628C20.0293 29.0959 22.259 28.043 24.1384 26.4979L19.4935 20.3981C18.2701 21.4268 16.7266 21.9898 15.1327 21.9887Z" fill="#EA9E30"/>
<path d="M8.31702 15.1278C8.31812 14.013 8.58921 12.9153 9.10678 11.9299C9.62435 10.9445 10.3728 10.1011 11.2872 9.47281L5.69077 3.4017C3.38854 5.2331 1.68496 7.71803 0.80041 10.5351C-0.0841375 13.3521 -0.108954 16.3716 0.729171 19.203L8.65686 17.2605C8.43262 16.5721 8.31793 15.8523 8.31702 15.1278Z" fill="#007EBE"/>
<path d="M15.1328 8.2668C16.2318 8.26945 17.3135 8.54248 18.2837 9.06213L22.0233 2.05606C19.4778 0.615551 16.5629 -0.0259939 13.6527 0.213775C10.7425 0.453544 7.96994 1.56368 5.6908 3.4017L11.2913 9.46459C12.4226 8.68126 13.764 8.26346 15.1369 8.2668" fill="#008ECE"/>
<path d="M21.1872 11.982L27.4049 7.27298C26.0817 5.10327 24.2315 3.30878 22.0287 2.05881L18.2837 9.06214C19.5245 9.71463 20.5376 10.7334 21.1872 11.982Z" fill="#009CDD"/>
<path d="M44.0473 8.2668C45.659 8.26721 47.2183 8.84346 48.4477 9.893C49.6771 10.9426 50.4969 12.3973 50.7611 13.9984L58.5406 12.1819C58.0722 9.71411 56.9875 7.40711 55.3887 5.47835C53.7899 3.5496 51.7297 2.06262 49.4023 1.15759C47.0749 0.252569 44.557 -0.0406876 42.0859 0.305469C39.6148 0.651625 37.272 1.62579 35.2782 3.13613L40.1338 9.51525C41.279 8.7021 42.6461 8.26598 44.0473 8.2668Z" fill="#EA9E30"/>
<path d="M38.1654 18.5801L31.926 23.3617C33.7702 26.0748 36.4546 28.0966 39.5601 29.1112C40.3757 26.5992 41.4387 23.4671 42.0259 21.6616C40.4003 21.153 39.0217 20.0517 38.16 18.5733" fill="#00A5E5"/>
<path d="M44.0473 21.9887C43.3637 21.9864 42.6844 21.8793 42.0328 21.6712C41.4442 23.4754 40.3812 26.5992 39.5656 29.118C41.8469 29.862 44.2748 30.0305 46.6359 29.6087C48.997 29.187 51.2192 28.1879 53.1073 26.6992L48.1892 20.561C47.0033 21.4842 45.5463 21.9845 44.0473 21.9833" fill="#00ACEB"/>
<path d="M50.863 15.1278C50.8642 16.1808 50.6234 17.2198 50.1595 18.1635C49.6957 19.1072 49.0213 19.9301 48.1892 20.5678L53.1087 26.6991C54.8839 25.3171 56.3214 23.5441 57.3111 21.5161C58.3007 19.488 58.8161 17.2588 58.8179 14.9991C58.8189 14.0542 58.7279 13.1115 58.546 12.1846L50.7665 13.9984C50.8316 14.3714 50.8657 14.7491 50.8685 15.1278" fill="#21BCEC"/>
<path d="M71.854 20.7156V8.76233H73.7571L78.7296 16.6459V8.76233H81.1043V20.7156H79.2013L74.2437 12.8335V20.7156H71.854Z" fill="white"/>
<path d="M89.1612 20.7964C88.8658 20.7937 88.5709 20.7695 88.279 20.7239C87.9441 20.6741 87.6214 20.5617 87.3275 20.3926C87.0093 20.2068 86.7486 19.9357 86.5744 19.6096C86.3759 19.2591 86.2767 18.7773 86.2767 18.164V11.4919C86.2627 11.0385 86.3447 10.5872 86.5173 10.1682C86.6583 9.83856 86.8788 9.54963 87.1589 9.32769C87.4219 9.12595 87.7216 8.97806 88.0411 8.89238C88.3512 8.80715 88.6712 8.76343 88.9926 8.76233C89.7947 8.76233 90.5029 8.77328 91.1173 8.79518C91.7317 8.81709 92.285 8.84127 92.7771 8.86774C93.2691 8.89511 93.7177 8.92934 94.1255 8.97314V10.9786H89.6981C89.4203 10.9608 89.1458 11.0471 88.9274 11.2209C88.7452 11.3824 88.6555 11.6316 88.6555 11.9642V13.689L93.3548 13.8259V15.715L88.6555 15.8519V17.4946C88.6433 17.7209 88.6902 17.9465 88.7915 18.1489C88.8728 18.2968 89.0032 18.4112 89.1598 18.472C89.3162 18.5314 89.4821 18.5615 89.6492 18.561H94.1255V20.561C93.6534 20.6157 93.1318 20.6613 92.5609 20.6978C91.99 20.7343 91.4127 20.7613 90.8291 20.7786C90.2419 20.7896 89.6859 20.7955 89.1612 20.7964Z" fill="white"/>
<path d="M101.545 20.7156V10.9115H98.2823V8.76233H107.185V10.9115H103.918V20.7156H101.545Z" fill="white"/>
<path d="M111.681 20.7156V8.76233H114.056V13.7383H118.531V8.76233H120.921V20.7156H118.531V15.8861H114.056V20.7156H111.681Z" fill="white"/>
<path d="M129.054 20.7964C128.758 20.7938 128.464 20.7696 128.172 20.7239C127.837 20.6736 127.514 20.5613 127.22 20.3926C126.902 20.2068 126.641 19.9357 126.467 19.6096C126.269 19.2591 126.17 18.7773 126.171 18.164V11.4919C126.154 11.0393 126.232 10.5882 126.4 10.1682C126.542 9.83847 126.763 9.54955 127.043 9.32769C127.306 9.12571 127.606 8.9778 127.926 8.89238C128.236 8.80703 128.556 8.7633 128.877 8.76233C129.679 8.76233 130.387 8.77328 131.002 8.79518C131.616 8.81709 132.17 8.84127 132.663 8.86774C133.154 8.89511 133.604 8.92934 134.01 8.97314V10.9786H129.583C129.305 10.9607 129.031 11.047 128.813 11.2209C128.632 11.3824 128.541 11.6302 128.541 11.9642V13.689L133.241 13.8259V15.715L128.541 15.8519V17.4946C128.529 17.7209 128.576 17.9465 128.677 18.1489C128.759 18.2972 128.89 18.4117 129.047 18.472C129.203 18.5314 129.369 18.5615 129.536 18.561H134.013V20.561C133.541 20.6157 133.019 20.6613 132.448 20.6978C131.877 20.7343 131.3 20.7613 130.716 20.7786C130.132 20.7896 129.578 20.7955 129.054 20.7964Z" fill="white"/>
<path d="M138.95 20.7157V8.76235H143.858C144.302 8.75864 144.744 8.81575 145.173 8.93209C145.572 9.04122 145.941 9.24332 146.248 9.52209C146.584 9.84223 146.835 10.2417 146.978 10.6843C147.173 11.3003 147.262 11.945 147.243 12.5912C147.252 13.0644 147.198 13.5367 147.083 13.9957C146.998 14.3377 146.854 14.6621 146.657 14.9539C146.494 15.1882 146.29 15.3905 146.055 15.5508C145.838 15.6976 145.607 15.8223 145.366 15.9231L147.579 20.7143H145.159L143.256 16.2886C143.129 16.2886 142.982 16.2859 142.816 16.2804C142.65 16.2749 142.481 16.2722 142.31 16.2722H141.798C141.626 16.2722 141.471 16.2722 141.331 16.2557V20.7143L138.95 20.7157ZM141.323 14.368H143.441C143.637 14.3704 143.831 14.3432 144.019 14.2873C144.19 14.2338 144.345 14.1361 144.467 14.0039C144.607 13.8497 144.709 13.6644 144.764 13.4632C144.841 13.1793 144.877 12.8855 144.868 12.5912C144.876 12.31 144.841 12.0293 144.764 11.7589C144.71 11.5643 144.608 11.3867 144.467 11.2428C144.342 11.1197 144.188 11.0306 144.019 10.9841C143.831 10.9331 143.636 10.9087 143.441 10.9115H141.323V14.368Z" fill="white"/>
<path d="M151.895 20.7156L153.273 8.76233H155.552L158.278 17.9217L160.989 8.76233H163.251L164.647 20.7156H162.352L161.326 11.9122L161.694 11.945L159.369 20.7156H157.139L154.782 11.945L155.19 11.9286L154.195 20.7156H151.895Z" fill="white"/>
<path d="M169.587 20.7156V8.76233H171.96V20.7156H169.587Z" fill="white"/>
<path d="M177.302 20.7156V8.76233H179.205L184.178 16.6459V8.76233H186.551V20.7156H184.648L179.687 12.8335V20.7156H177.302Z" fill="white"/>
<path d="M191.722 20.7156V8.76233H196.742C197.544 8.76233 198.213 8.90515 198.747 9.1908C199.279 9.47305 199.72 9.89995 200.022 10.4228C200.357 11.0094 200.582 11.6523 200.688 12.3201C200.822 13.1206 200.887 13.9313 200.881 14.7431C200.881 16.0901 200.729 17.2048 200.423 18.0873C200.118 18.9698 199.661 19.6292 199.052 20.0654C198.443 20.5016 197.673 20.7197 196.741 20.7197L191.722 20.7156ZM194.096 18.5678H196.502C196.715 18.5791 196.929 18.547 197.13 18.4734C197.331 18.3998 197.516 18.2862 197.672 18.1394C197.962 17.8546 198.174 17.4266 198.307 16.8553C198.453 16.1597 198.52 15.4498 198.507 14.739C198.517 14.0977 198.474 13.4567 198.379 12.8225C198.323 12.4124 198.195 12.0155 198.001 11.6507C197.861 11.3941 197.641 11.1904 197.376 11.0703C197.098 10.9574 196.801 10.9024 196.502 10.9088H194.096V18.5678Z" fill="white"/>
</svg>
